<svg width="32" height="32" viewBox="0 0 32 32" fill="none" xmlns="http://www.w3.org/2000/svg">
<g clip-path="url(#clip0_8084_837)">
<path d="M31.198 12.9641H29.9495V12.8998H15.9997V19.0997H24.7594C23.4815 22.7088 20.0475 25.2996 15.9997 25.2996C10.8639 25.2996 6.69989 21.1356 6.69989 15.9997C6.69989 10.8639 10.8639 6.69989 15.9997 6.69989C18.3704 6.69989 20.5272 7.59423 22.1694 9.05508L26.5535 4.67098C23.7852 2.09105 20.0824 0.5 15.9997 0.5C7.44 0.5 0.5 7.44 0.5 15.9997C0.5 24.5595 7.44 31.4995 15.9997 31.4995C24.5595 31.4995 31.4995 24.5595 31.4995 15.9997C31.4995 14.9605 31.3925 13.946 31.198 12.9641Z" fill="#FFC107"/>
<path d="M2.28613 8.78538L7.37857 12.52C8.7565 9.10855 12.0936 6.69989 15.9987 6.69989C18.3694 6.69989 20.5262 7.59423 22.1684 9.05508L26.5525 4.67098C23.7843 2.09105 20.0814 0.5 15.9987 0.5C10.0453 0.5 4.88234 3.86112 2.28613 8.78538Z" fill="#FF3D00"/>
<path d="M15.9998 31.5C20.0034 31.5 23.6412 29.9678 26.3916 27.4763L21.5944 23.4169C19.986 24.6401 18.0206 25.3017 15.9998 25.3001C11.9683 25.3001 8.54521 22.7295 7.25563 19.1421L2.20117 23.0364C4.76638 28.056 9.97584 31.5 15.9998 31.5Z" fill="#4CAF50"/>
<path d="M31.1978 12.9641H29.9493V12.8998H15.9995V19.0997H24.7592C24.1479 20.8174 23.0467 22.3183 21.5918 23.4171L21.5941 23.4156L26.3913 27.475C26.0519 27.7834 31.4992 23.7496 31.4992 15.9997C31.4992 14.9605 31.3923 13.946 31.1978 12.9641Z" fill="#1976D2"/>
</g>
<defs>
<clipPath id="clip0_8084_837">
<rect x="0.5" y="0.5" width="31" height="31" rx="15.5" fill="white"/>
</clipPath>
</defs>
</svg>
