<svg width="68" height="93" viewBox="0 0 68 93" fill="none" xmlns="http://www.w3.org/2000/svg">
<mask id="path-1-inside-1_8090_10" fill="white">
<path d="M0 57.8736C0.229755 68.4112 2.34295 75.8058 6.43394 80.9564L33.7318 79.2883L61.0296 77.6203L64.5113 73.498C66.2588 69.4772 66.9258 66.9208 66.6693 60.9581C65.7693 56.775 65.0491 54.4596 63.0438 50.4361C61.8189 48.3547 58.6046 42.521 58.6046 42.521C58.6046 42.521 57.1486 40.1117 55.685 37.069C55.685 37.069 52.4088 29.2293 52.7714 24.2609C51.7461 26.4867 51.442 27.9688 50.9875 30.6894C50.4133 34.6719 50.3298 36.8897 50.2969 40.8366C47.5359 39.8049 43.9356 37.853 43.9356 37.853C35.6845 32.1657 41.2907 23.742 41.2907 19.3026C41.2907 14.8632 40.8015 12.4993 39.6218 9.47244C38.4421 6.44557 36.7511 4.22047 33.3778 0.651276C35.4178 4.13914 35.6648 6.28907 34.6151 10.4237C33.1193 14.3038 31.8354 16.6282 28.5726 21.0899C22.7699 27.9874 19.7699 30.3688 15.8795 37.069C15.8795 37.069 10.3623 48.2583 9.9558 58.8825C7.09442 52.9959 6.85593 48.7617 8.11427 40.0583C3.27656 44.6608 1.39364 48.4133 0 57.8736Z"/>
</mask>
<path d="M-109.45 -21.3121L-109.594 -20.7933L215.136 69.315L215.28 68.7961L-109.45 -21.3121ZM6.43394 80.9564L-257.454 290.556L-148.256 428.037L26.9883 417.329L6.43394 80.9564ZM0 57.8736L-333.402 8.75821L-337.539 36.8407L-336.92 65.2195L0 57.8736ZM8.11427 40.0583L341.646 88.2801L480.901 -874.891L-224.172 -204.098L8.11427 40.0583ZM9.9558 58.8825L-293.134 206.21L346.709 71.766L9.9558 58.8825ZM15.8795 37.069L-275.556 -132.149L-281.308 -122.242L-286.374 -111.967L15.8795 37.069ZM28.5726 21.0899L286.454 238.037L293.83 229.269L300.593 220.021L28.5726 21.0899ZM34.6151 10.4237L349.059 131.644L356.3 112.861L361.253 93.3492L34.6151 10.4237ZM33.3778 0.651276L278.3 -230.827L-257.52 170.791L33.3778 0.651276ZM43.9356 37.853L-147.319 315.325L-132.505 325.536L-116.688 334.111L43.9356 37.853ZM50.2969 40.8366L-67.6577 356.52L383.282 525.013L387.285 43.6392L50.2969 40.8366ZM50.9875 30.6894L-281.407 -24.8344L-282.027 -21.1245L-282.563 -17.4017L50.9875 30.6894ZM58.6046 42.521L353.766 -120.11L350.514 -126.011L347.03 -131.777L58.6046 42.521ZM55.685 37.069L-255.255 167.013L-251.843 175.177L-248.007 183.151L55.685 37.069ZM52.7714 24.2609L388.877 48.7922L-253.314 -116.738L52.7714 24.2609ZM63.0438 50.4361L364.66 -99.8868L359.429 -110.382L353.481 -120.489L63.0438 50.4361ZM66.6693 60.9581L403.358 46.4759L402.132 17.969L396.13 -9.92585L66.6693 60.9581ZM64.5113 73.498L321.971 290.945L353.874 253.173L373.582 207.828L64.5113 73.498ZM61.0296 77.6203L81.584 413.993L225.473 405.2L318.49 295.068L61.0296 77.6203ZM33.7318 79.2883L13.1774 -257.084L33.7318 79.2883ZM270.322 -128.643C331.206 -51.9903 336.382 25.861 336.92 50.5276L-336.92 65.2195C-335.923 110.961 -326.52 203.602 -257.454 290.556L270.322 -128.643ZM333.402 106.989C332.394 113.83 327.473 147.972 308.517 188.867C286.373 236.639 257.374 268.066 240.4 284.215L-224.172 -204.098C-245.983 -183.347 -278.343 -147.742 -302.986 -94.5782C-324.441 -48.2911 -331 -7.54328 -333.402 8.75821L333.402 106.989ZM313.046 -88.4448C325.667 -62.4799 339.012 -25.3724 343.127 20.2501C346.501 57.644 341.981 85.9632 341.646 88.2801L-325.418 -8.16355C-327.011 2.85673 -332.04 37.6447 -328.147 80.8033C-323.512 132.19 -308.617 174.358 -293.134 206.21L313.046 -88.4448ZM15.8795 37.069C-286.374 -111.967 -286.4 -111.915 -286.425 -111.864C-286.433 -111.847 -286.459 -111.795 -286.476 -111.761C-286.51 -111.692 -286.544 -111.622 -286.578 -111.552C-286.647 -111.413 -286.716 -111.272 -286.786 -111.13C-286.925 -110.845 -287.066 -110.555 -287.21 -110.26C-287.498 -109.668 -287.794 -109.054 -288.099 -108.418C-288.708 -107.146 -289.354 -105.779 -290.031 -104.321C-291.379 -101.417 -292.879 -98.0903 -294.475 -94.3864C-297.598 -87.1389 -301.439 -77.6412 -305.34 -66.39C-311.625 -48.2586 -324.772 -6.96162 -326.798 45.999L346.709 71.766C345.09 114.102 334.905 144.493 331.48 154.373C329.01 161.499 326.573 167.536 324.497 172.353C323.424 174.842 322.359 177.212 321.314 179.462C320.789 180.593 320.262 181.71 319.734 182.812C319.47 183.364 319.204 183.914 318.938 184.462C318.804 184.737 318.671 185.01 318.536 185.284C318.469 185.421 318.402 185.558 318.335 185.695C318.302 185.763 318.268 185.831 318.234 185.9C318.217 185.934 318.192 185.985 318.184 186.002C318.159 186.054 318.133 186.105 15.8795 37.069ZM-229.309 -195.857C-227.645 -197.836 -226.406 -199.214 -226.771 -198.806C-226.963 -198.591 -227.022 -198.524 -227.465 -198.029C-227.798 -197.655 -228.349 -197.039 -228.969 -196.34C-230.186 -194.97 -232.242 -192.642 -234.667 -189.805C-239.815 -183.782 -246.832 -175.233 -254.568 -164.515C-262.369 -153.707 -269.31 -142.904 -275.556 -132.149L307.315 206.287C303.015 213.692 297.907 221.685 291.944 229.946C286.046 238.118 280.871 244.384 277.685 248.112C276.241 249.801 275.196 250.978 275.034 251.161C274.941 251.266 274.929 251.278 275.147 251.034C275.255 250.913 275.76 250.348 276.147 249.914C278.099 247.727 281.888 243.464 286.454 238.037L-229.309 -195.857ZM-279.828 -110.796C-276.644 -119.058 -270.684 -133.332 -261.278 -150.01C-252.88 -164.902 -245.325 -175.275 -243.448 -177.841L300.593 220.021C317.461 196.956 334.765 168.722 349.059 131.644L-279.828 -110.796ZM-257.52 170.791C-268.394 152.199 -291.594 108.529 -299.263 46.9286C-306.615 -12.125 -295.777 -57.7124 -292.023 -72.5017L361.253 93.3492C366.057 74.4252 377.296 25.6955 369.573 -36.3387C361.533 -100.92 337.19 -147.408 324.276 -169.488L-257.52 170.791ZM378.291 19.3026C378.291 -21.9947 371.719 -66.4597 353.616 -112.908L-274.372 131.853C-279.361 119.052 -286.347 98.5624 -290.945 72.5866C-295.231 48.3638 -295.709 29.044 -295.709 19.3026H378.291ZM353.616 -112.908C328.395 -177.617 290.369 -218.057 278.3 -230.827L-211.544 232.13C-213.148 230.432 -224.113 218.954 -236.381 201.875C-251.102 181.382 -264.225 157.887 -274.372 131.853L353.616 -112.908ZM235.19 -239.619C282.905 -206.73 328.474 -156.022 354.788 -87.2527C379.456 -22.7828 377.945 33.561 374.507 64.8844C371.454 92.6895 364.607 116.013 366.386 109.273C366.477 108.93 367.124 106.488 367.85 103.572C368.599 100.562 369.837 95.4431 371.143 89.0962C373.327 78.4907 378.291 52.5927 378.291 19.3026H-295.709C-295.709 -12.8777 -290.921 -37.5413 -289.011 -46.8143C-286.984 -56.663 -284.766 -64.7445 -285.299 -62.7249C-285.303 -62.7077 -285.309 -62.6872 -285.323 -62.6332C-285.335 -62.5883 -285.355 -62.5131 -285.376 -62.432C-285.419 -62.2699 -285.487 -62.0116 -285.566 -61.708C-285.724 -61.1084 -285.972 -60.1578 -286.265 -59.0114C-286.842 -56.755 -287.738 -53.1705 -288.73 -48.7865C-290.655 -40.2848 -293.543 -26.2039 -295.469 -8.66474C-299.277 26.0304 -300.642 85.8239 -274.705 153.612C-247.122 225.699 -199.159 279.593 -147.319 315.325L235.19 -239.619ZM168.252 -274.846C183.265 -269.237 193.945 -263.877 195.695 -263.01C197.722 -262.006 199.424 -261.129 200.74 -260.441C201.426 -260.082 202.082 -259.735 202.705 -259.403C203.018 -259.236 203.329 -259.07 203.636 -258.904C203.79 -258.821 203.944 -258.738 204.098 -258.655C204.175 -258.614 204.252 -258.572 204.328 -258.53C204.367 -258.51 204.405 -258.489 204.444 -258.468C204.463 -258.458 204.482 -258.447 204.502 -258.437C204.511 -258.432 204.526 -258.424 204.53 -258.421C204.545 -258.413 204.559 -258.405 43.9356 37.853C-116.688 334.111 -116.674 334.119 -116.659 334.127C-116.654 334.13 -116.64 334.138 -116.63 334.143C-116.611 334.153 -116.591 334.164 -116.571 334.175C-116.532 334.196 -116.492 334.217 -116.452 334.239C-116.372 334.283 -116.289 334.327 -116.206 334.372C-116.038 334.463 -115.864 334.557 -115.683 334.654C-115.321 334.849 -114.93 335.058 -114.513 335.281C-113.682 335.724 -112.725 336.231 -111.657 336.789C-109.58 337.876 -106.805 339.305 -103.533 340.926C-99.2925 343.027 -85.4319 349.878 -67.6577 356.52L168.252 -274.846ZM-282.563 -17.4017C-286.068 6.90197 -286.587 25.4721 -286.691 38.034L387.285 43.6392C387.293 42.7569 387.284 48.7955 386.781 56.8334C386.201 66.0876 385.267 73.7288 384.538 78.7804L-282.563 -17.4017ZM58.6046 42.521C347.03 -131.777 347.039 -131.761 347.049 -131.745C347.052 -131.74 347.062 -131.724 347.069 -131.713C347.081 -131.692 347.094 -131.67 347.107 -131.649C347.133 -131.606 347.159 -131.563 347.185 -131.52C347.236 -131.435 347.288 -131.349 347.34 -131.264C347.443 -131.092 347.546 -130.921 347.648 -130.75C347.854 -130.407 348.059 -130.063 348.265 -129.717C348.674 -129.027 349.088 -128.324 349.506 -127.607C350.333 -126.189 351.22 -124.638 352.155 -122.958C353.868 -119.882 356.442 -115.116 359.377 -109.013L-248.007 183.151C-243.608 192.297 -239.574 199.789 -236.768 204.831C-235.286 207.493 -233.943 209.837 -232.798 211.801C-232.221 212.792 -231.681 213.707 -231.186 214.54C-230.938 214.957 -230.7 215.356 -230.473 215.736C-230.359 215.926 -230.248 216.111 -230.139 216.292C-230.085 216.382 -230.031 216.471 -229.978 216.559C-229.951 216.603 -229.925 216.647 -229.899 216.69C-229.886 216.712 -229.873 216.733 -229.859 216.755C-229.853 216.766 -229.843 216.782 -229.84 216.787C-229.83 216.803 -229.821 216.819 58.6046 42.521ZM-253.314 -116.738C-273.39 -73.1565 -279.504 -36.2256 -281.407 -24.8344L383.382 86.2131C383.357 86.363 383.227 87.1405 383.035 88.23C382.839 89.34 382.519 91.1151 382.088 93.3259C381.222 97.7714 379.756 104.769 377.506 113.294C372.349 132.832 365.759 150.276 358.857 165.26L-253.314 -116.738ZM55.685 37.069C366.625 -92.8749 366.642 -92.8347 366.658 -92.7945C366.664 -92.7811 366.681 -92.7408 366.692 -92.714C366.714 -92.6603 366.737 -92.6065 366.759 -92.5527C366.804 -92.4452 366.849 -92.3374 366.894 -92.2295C366.983 -92.0136 367.073 -91.7969 367.163 -91.5793C367.343 -91.1443 367.523 -90.705 367.704 -90.2614C368.065 -89.3756 368.432 -88.4651 368.802 -87.5304C369.538 -85.6763 370.321 -83.6473 371.134 -81.4562C372.667 -77.3248 374.735 -71.4621 376.899 -64.2445C378.905 -57.551 382.138 -45.928 384.82 -30.916C387.081 -18.2584 391.636 10.9997 388.877 48.7922L-283.335 -0.270421C-288.336 68.2494 -270.775 122.427 -268.714 129.301C-265.777 139.099 -262.912 147.232 -260.777 152.989C-259.662 155.993 -258.626 158.673 -257.712 160.975C-257.253 162.134 -256.816 163.218 -256.407 164.221C-256.202 164.723 -256.004 165.207 -255.812 165.672C-255.716 165.905 -255.621 166.133 -255.528 166.356C-255.482 166.468 -255.436 166.578 -255.39 166.688C-255.368 166.743 -255.345 166.797 -255.322 166.851C-255.311 166.878 -255.294 166.919 -255.288 166.932C-255.272 166.973 -255.255 167.013 55.685 37.069ZM58.6046 42.521C-236.557 205.152 -236.556 205.153 -236.555 205.155C-236.555 205.155 -236.554 205.157 -236.553 205.158C-236.552 205.16 -236.551 205.163 -236.55 205.165C-236.547 205.17 -236.544 205.175 -236.541 205.18C-236.535 205.191 -236.528 205.203 -236.521 205.217C-236.505 205.245 -236.487 205.279 -236.465 205.318C-236.422 205.396 -236.367 205.497 -236.3 205.618C-236.167 205.859 -235.987 206.184 -235.772 206.572C-235.351 207.335 -234.755 208.409 -234.087 209.61C-233.578 210.524 -230.437 216.189 -227.393 221.361L353.481 -120.489C355.299 -117.399 356.221 -115.691 354.816 -118.214C354.528 -118.732 354.243 -119.246 354.024 -119.642C353.919 -119.833 353.838 -119.98 353.79 -120.066C353.766 -120.109 353.752 -120.135 353.747 -120.144C353.745 -120.148 353.745 -120.147 353.748 -120.142C353.75 -120.139 353.752 -120.135 353.755 -120.13C353.756 -120.127 353.758 -120.124 353.76 -120.121C353.761 -120.119 353.762 -120.117 353.763 -120.116C353.763 -120.115 353.764 -120.113 353.764 -120.113C353.765 -120.111 353.766 -120.11 58.6046 42.521ZM-238.572 200.759C-242.099 193.681 -248.173 180.715 -253.935 163.696C-259.412 147.515 -262.157 134.789 -262.792 131.842L396.13 -9.92585C390.37 -36.6971 381.305 -66.4892 364.66 -99.8868L-238.572 200.759ZM-270.019 75.4402C-270.48 64.7412 -271.052 38.8015 -264.908 5.96828C-258.498 -28.2848 -247.849 -53.2631 -244.559 -60.832L373.582 207.828C378.619 196.238 390.476 167.971 397.592 129.944C404.442 93.3369 404.075 63.1377 403.358 46.4759L-270.019 75.4402ZM-192.949 -143.95L-196.43 -139.827L318.49 295.068L321.971 290.945L-192.949 -143.95ZM40.4753 -258.752L13.1774 -257.084L54.2861 415.661L81.584 413.993L40.4753 -258.752ZM13.1774 -257.084L-14.1204 -255.416L26.9883 417.329L54.2861 415.661L13.1774 -257.084Z" fill="#F58C42" mask="url(#path-1-inside-1_8090_10)"/>
<ellipse cx="34.8547" cy="71.1278" rx="31.2285" ry="17.5134" transform="rotate(-7.06421 34.8547 71.1278)" fill="#F58C42"/>
<mask id="path-4-inside-2_8090_10" fill="white">
<path d="M11.6826 59.6332C11.8174 65.8168 13.0575 70.156 15.4581 73.1784L31.4767 72.1995L47.4952 71.2207L49.5383 68.8017C50.5638 66.4423 50.9551 64.9422 50.8046 61.4432C50.2765 58.9886 49.8539 57.6299 48.6772 55.2688C47.9584 54.0475 46.0722 50.6242 46.0722 50.6242C46.0722 50.6242 45.2178 49.2104 44.359 47.425C44.359 47.425 42.4364 42.8246 42.6492 39.909C42.0476 41.2152 41.8691 42.0849 41.6024 43.6813C41.2655 46.0183 41.2165 47.3197 41.1972 49.6358C39.577 49.0304 37.4643 47.885 37.4643 47.885C32.6225 44.5476 35.9123 39.6046 35.9123 36.9995C35.9123 34.3944 35.6252 33.0073 34.933 31.2311C34.2407 29.4549 33.2484 28.1492 31.269 26.0548C32.466 28.1015 32.611 29.3631 31.995 31.7893C31.1173 34.0662 30.3639 35.4302 28.4492 38.0483C25.0442 42.0958 23.2837 43.4932 21.0008 47.425C21.0008 47.425 17.7633 53.9909 17.5247 60.2253C15.8457 56.771 15.7057 54.2863 16.4441 49.1791C13.6053 51.8798 12.5004 54.0819 11.6826 59.6332Z"/>
</mask>
<path d="M11.6826 59.6332C11.8174 65.8168 13.0575 70.156 15.4581 73.1784L31.4767 72.1995L47.4952 71.2207L49.5383 68.8017C50.5638 66.4423 50.9551 64.9422 50.8046 61.4432C50.2765 58.9886 49.8539 57.6299 48.6772 55.2688C47.9584 54.0475 46.0722 50.6242 46.0722 50.6242C46.0722 50.6242 45.2178 49.2104 44.359 47.425C44.359 47.425 42.4364 42.8246 42.6492 39.909C42.0476 41.2152 41.8691 42.0849 41.6024 43.6813C41.2655 46.0183 41.2165 47.3197 41.1972 49.6358C39.577 49.0304 37.4643 47.885 37.4643 47.885C32.6225 44.5476 35.9123 39.6046 35.9123 36.9995C35.9123 34.3944 35.6252 33.0073 34.933 31.2311C34.2407 29.4549 33.2484 28.1492 31.269 26.0548C32.466 28.1015 32.611 29.3631 31.995 31.7893C31.1173 34.0662 30.3639 35.4302 28.4492 38.0483C25.0442 42.0958 23.2837 43.4932 21.0008 47.425C21.0008 47.425 17.7633 53.9909 17.5247 60.2253C15.8457 56.771 15.7057 54.2863 16.4441 49.1791C13.6053 51.8798 12.5004 54.0819 11.6826 59.6332Z" fill="#070D1A"/>
<path d="M-119.631 -5.44945L-119.716 -5.14496L205.014 84.9631L205.099 84.6586L-119.631 -5.44945ZM15.4581 73.1784L-248.43 282.778L-139.232 420.259L36.0124 409.551L15.4581 73.1784ZM11.6826 59.6332L-321.719 10.5179L-325.856 38.6004L-325.237 66.9792L11.6826 59.6332ZM16.4441 49.1791L349.976 97.4009L489.231 -865.77L-215.842 -194.977L16.4441 49.1791ZM17.5247 60.2253L-285.566 207.552L354.278 73.1088L17.5247 60.2253ZM21.0008 47.425L-270.434 -121.793L-276.187 -111.886L-281.253 -101.611L21.0008 47.425ZM28.4492 38.0483L286.331 254.995L293.707 246.228L300.47 236.98L28.4492 38.0483ZM31.995 31.7893L346.438 153.009L353.679 134.226L358.633 114.715L31.995 31.7893ZM31.269 26.0548L276.191 -205.424L-259.629 196.194L31.269 26.0548ZM34.933 31.2311L348.927 -91.1491V-91.1491L34.933 31.2311ZM37.4643 47.885L-153.791 325.357L-138.976 335.568L-123.159 344.144L37.4643 47.885ZM41.1972 49.6358L-76.7574 365.319L374.182 533.812L378.186 52.4385L41.1972 49.6358ZM41.6024 43.6813L-290.792 -11.8424L-291.412 -8.13242L-291.949 -4.40947L41.6024 43.6813ZM46.0722 50.6242L341.233 -112.007L337.982 -117.908L334.497 -123.674L46.0722 50.6242ZM44.359 47.425L-266.581 177.369L-263.169 185.533L-259.334 193.507L44.359 47.425ZM42.6492 39.909L378.755 64.4404L-263.436 -101.09L42.6492 39.909ZM48.6772 55.2688L350.293 -95.0538L345.062 -105.55L339.114 -115.656L48.6772 55.2688ZM50.8046 61.4432L387.493 46.9616L386.267 18.4542L380.265 -9.44108L50.8046 61.4432ZM49.5383 68.8017L306.998 286.249L338.901 248.476L358.609 203.131L49.5383 68.8017ZM47.4952 71.2207L68.0496 407.593L211.938 398.801L304.955 288.668L47.4952 71.2207ZM31.4767 72.1995L52.0309 408.572H52.031L31.4767 72.1995ZM279.346 -136.422C341.92 -57.6402 347.97 23.2667 348.603 52.2872L-325.237 66.9792C-324.335 108.367 -315.805 197.952 -248.43 282.778L279.346 -136.422ZM345.084 108.749C343.789 117.544 338.529 153.051 319.057 195.06C296.397 243.946 266.703 276.236 248.73 293.335L-215.842 -194.977C-236.654 -175.177 -268.319 -140.436 -292.446 -88.3853C-313.384 -43.2122 -319.606 -3.82914 -321.719 10.5179L345.084 108.749ZM320.615 -87.1019C333.827 -59.9209 347.492 -21.768 351.715 25.0454C355.196 63.6303 350.571 93.2859 349.976 97.4009L-317.088 0.957256C-318.421 10.1794 -323.345 43.631 -319.559 85.5986C-315.031 135.795 -300.457 176.917 -285.566 207.552L320.615 -87.1019ZM21.0008 47.425C-281.253 -101.611 -281.278 -101.559 -281.304 -101.508C-281.312 -101.491 -281.337 -101.439 -281.354 -101.405C-281.388 -101.336 -281.422 -101.267 -281.456 -101.197C-281.525 -101.058 -281.593 -100.918 -281.663 -100.777C-281.801 -100.495 -281.941 -100.208 -282.082 -99.9169C-282.365 -99.3346 -282.656 -98.7337 -282.952 -98.1147C-283.545 -96.8779 -284.166 -95.5624 -284.811 -94.1722C-286.097 -91.4033 -287.507 -88.2744 -288.995 -84.8215C-291.902 -78.0759 -295.453 -69.2934 -299.058 -58.8945C-304.752 -42.4676 -317.287 -3.42394 -319.229 47.3417L354.278 73.1088C352.575 117.64 341.778 150.284 337.762 161.869C334.996 169.847 332.27 176.598 329.977 181.918C328.796 184.658 327.641 187.225 326.534 189.611C325.978 190.809 325.426 191.978 324.881 193.115C324.608 193.685 324.336 194.248 324.065 194.805C323.93 195.084 323.795 195.361 323.659 195.637C323.592 195.775 323.524 195.912 323.457 196.05C323.423 196.118 323.389 196.187 323.356 196.255C323.339 196.29 323.314 196.341 323.305 196.358C323.28 196.409 323.255 196.461 21.0008 47.425ZM-229.432 -178.899C-227.169 -181.59 -225.403 -183.564 -225.289 -183.692C-224.152 -184.966 -228.27 -180.392 -231.872 -176.179C-236.615 -170.629 -243.251 -162.552 -250.607 -152.361C-258.029 -142.079 -264.591 -131.856 -270.434 -121.793L312.436 216.643C307.734 224.74 302.248 233.314 295.905 242.101C289.628 250.799 284.072 257.536 280.48 261.739C278.03 264.605 275.133 267.826 277.629 265.028C279.102 263.377 282.365 259.71 286.331 254.995L-229.432 -178.899ZM-282.448 -89.4308C-278.955 -98.4937 -272.708 -113.409 -262.924 -130.758C-254.147 -146.321 -246.123 -157.394 -243.572 -160.883L300.47 236.98C315.99 215.758 332.763 188.485 346.438 153.009L-282.448 -89.4308ZM-259.629 196.194C-270.924 176.882 -294.361 132.63 -302.106 70.4134C-309.535 10.744 -298.614 -35.4927 -294.643 -51.1363L358.633 114.715C363.22 96.6451 374.377 48.5645 366.73 -12.854C358.767 -76.8192 334.659 -122.726 322.167 -144.085L-259.629 196.194ZM372.912 36.9995C372.912 -2.46325 366.543 -45.9516 348.927 -91.1491L-279.061 153.611C-284.294 140.185 -291.452 119.139 -296.161 92.5332C-300.559 67.6805 -301.088 47.658 -301.088 36.9995H372.912ZM348.927 -91.1491C324.194 -154.608 286.866 -194.128 276.191 -205.424L-213.653 257.533C-215.954 255.099 -227.442 243.021 -240.12 225.372C-255.251 204.308 -268.67 180.271 -279.061 153.611L348.927 -91.1491ZM228.719 -229.587C277.286 -196.111 323.35 -144.745 349.925 -75.2895C374.856 -10.1342 373.375 46.9222 369.86 78.9422C366.731 107.444 359.701 131.448 361.316 125.329C361.366 125.141 361.974 122.85 362.663 120.081C363.376 117.219 364.579 112.243 365.858 106.034C367.985 95.7033 372.912 70.0603 372.912 36.9995H-301.088C-301.088 4.58993 -296.263 -20.3287 -294.297 -29.8769C-293.099 -35.6951 -291.99 -40.2656 -291.382 -42.7104C-291.058 -44.0128 -290.791 -45.0503 -290.631 -45.6663C-290.548 -45.9847 -290.481 -46.2395 -290.439 -46.3997C-290.398 -46.5553 -290.369 -46.6647 -290.368 -46.669C-289.219 -51.0242 -296.769 -25.0872 -300.115 5.39307C-303.847 39.3916 -305.242 98.4724 -279.567 165.575C-252.246 236.977 -204.778 290.212 -153.791 325.357L228.719 -229.587ZM159.152 -266.047C174.735 -260.224 186.072 -254.557 188.337 -253.435C190.621 -252.303 192.545 -251.312 194.018 -250.542C194.783 -250.142 195.501 -249.762 196.167 -249.407C196.502 -249.228 196.829 -249.053 197.148 -248.881C197.307 -248.795 197.465 -248.71 197.622 -248.626C197.7 -248.583 197.778 -248.541 197.856 -248.499C197.895 -248.478 197.933 -248.457 197.972 -248.436C197.991 -248.426 198.011 -248.415 198.03 -248.405C198.04 -248.4 198.054 -248.392 198.059 -248.389C198.073 -248.381 198.088 -248.374 37.4643 47.885C-123.159 344.144 -123.145 344.151 -123.13 344.159C-123.125 344.162 -123.111 344.17 -123.101 344.175C-123.082 344.185 -123.062 344.196 -123.043 344.207C-123.003 344.228 -122.964 344.249 -122.924 344.271C-122.844 344.314 -122.763 344.358 -122.681 344.402C-122.516 344.491 -122.346 344.583 -122.171 344.677C-121.82 344.866 -121.446 345.066 -121.05 345.277C-120.263 345.698 -119.367 346.172 -118.378 346.689C-116.459 347.693 -113.905 349.008 -110.891 350.501C-107.164 352.348 -93.9612 358.891 -76.7574 365.319L159.152 -266.047ZM-291.949 -4.40947C-295.215 18.2484 -295.7 35.902 -295.791 46.8331L378.186 52.4385C378.184 52.5809 378.171 54.3549 378.108 56.8022C378.038 59.4719 377.904 63.2244 377.622 67.7235C377.003 77.6162 376 85.8979 375.153 91.7721L-291.949 -4.40947ZM46.0722 50.6242C334.497 -123.674 334.507 -123.658 334.517 -123.642C334.52 -123.637 334.53 -123.621 334.536 -123.61C334.549 -123.588 334.562 -123.567 334.575 -123.545C334.601 -123.503 334.627 -123.46 334.653 -123.416C334.705 -123.33 334.757 -123.244 334.809 -123.157C334.913 -122.984 335.018 -122.81 335.123 -122.635C335.333 -122.284 335.545 -121.929 335.759 -121.568C336.187 -120.849 336.627 -120.102 337.077 -119.329C337.97 -117.798 338.951 -116.083 339.999 -114.2C341.938 -110.718 344.814 -105.388 348.052 -98.6567L-259.334 193.507C-255.237 202.024 -251.504 208.953 -248.924 213.589C-247.555 216.048 -246.306 218.228 -245.227 220.08C-244.682 221.013 -244.169 221.885 -243.692 222.688C-243.452 223.091 -243.221 223.479 -242.998 223.851C-242.887 224.037 -242.777 224.219 -242.67 224.398C-242.616 224.487 -242.563 224.575 -242.51 224.663C-242.483 224.707 -242.457 224.75 -242.431 224.793C-242.418 224.815 -242.405 224.837 -242.392 224.858C-242.385 224.869 -242.376 224.885 -242.372 224.89C-242.363 224.906 -242.353 224.923 46.0722 50.6242ZM-263.436 -101.09C-283.088 -58.4282 -289.077 -22.1098 -290.792 -11.8424L373.997 99.2051C373.954 99.4601 373.409 102.769 372.569 107.078C371.657 111.753 370.145 118.961 367.841 127.691C362.576 147.637 355.849 165.464 348.735 180.908L-263.436 -101.09ZM44.359 47.425C355.299 -82.519 355.316 -82.4788 355.332 -82.4386C355.338 -82.4251 355.355 -82.3848 355.366 -82.3579C355.388 -82.3041 355.411 -82.2502 355.433 -82.1963C355.478 -82.0883 355.524 -81.9799 355.569 -81.8712C355.659 -81.6538 355.75 -81.4347 355.841 -81.214C356.023 -80.7728 356.207 -80.3243 356.393 -79.8686C356.764 -78.9586 357.145 -78.0123 357.534 -77.0313C358.306 -75.0846 359.142 -72.921 360.017 -70.5621C361.675 -66.0949 363.907 -59.7632 366.231 -52.0123C368.397 -44.7856 371.785 -32.5652 374.573 -16.9608C376.94 -3.71076 381.551 26.1346 378.755 64.4404L-293.457 15.3777C-298.383 82.8711 -281.123 135.726 -279.382 141.533C-276.605 150.798 -273.905 158.462 -271.894 163.883C-270.841 166.719 -269.857 169.265 -268.981 171.475C-268.539 172.587 -268.117 173.635 -267.718 174.614C-267.518 175.104 -267.323 175.579 -267.134 176.037C-267.039 176.267 -266.946 176.493 -266.854 176.714C-266.807 176.825 -266.762 176.935 -266.716 177.044C-266.693 177.099 -266.671 177.153 -266.648 177.207C-266.637 177.234 -266.62 177.275 -266.615 177.288C-266.598 177.329 -266.581 177.369 44.359 47.425ZM46.0722 50.6242C-249.089 213.255 -249.088 213.257 -249.087 213.258C-249.087 213.259 -249.086 213.26 -249.086 213.261C-249.085 213.263 -249.083 213.266 -249.082 213.268C-249.08 213.272 -249.077 213.277 -249.074 213.282C-249.069 213.291 -249.063 213.302 -249.057 213.314C-249.044 213.337 -249.029 213.364 -249.013 213.394C-248.979 213.454 -248.938 213.529 -248.89 213.616C-248.795 213.789 -248.669 214.017 -248.52 214.285C-248.231 214.809 -247.817 215.555 -247.346 216.401C-247.233 216.605 -244.55 221.452 -241.76 226.194L339.114 -115.656C341.186 -112.136 342.566 -109.611 341.557 -111.424C341.466 -111.587 341.363 -111.772 341.276 -111.929C341.237 -112 341.21 -112.05 341.199 -112.068C341.195 -112.077 341.194 -112.078 341.2 -112.068C341.202 -112.063 341.206 -112.056 341.212 -112.046C341.215 -112.041 341.218 -112.035 341.222 -112.028C341.223 -112.025 341.225 -112.022 341.227 -112.018C341.228 -112.016 341.229 -112.014 341.23 -112.013C341.231 -112.012 341.232 -112.01 341.232 -112.01C341.233 -112.008 341.233 -112.007 46.0722 50.6242ZM-252.939 205.592C-256.88 197.682 -263.236 184.061 -269.222 166.38C-274.924 149.536 -277.836 136.139 -278.656 132.328L380.265 -9.44108C374.877 -34.4836 366.109 -63.3188 350.293 -95.0538L-252.939 205.592ZM-285.884 75.9249C-286.397 63.9941 -286.928 37.1746 -280.637 3.56192C-274.082 -31.4707 -263.183 -57.1283 -259.532 -65.5281L358.609 203.131C363.285 192.372 374.892 164.785 381.862 127.538C388.567 91.7103 388.157 62.3913 387.493 46.9616L-285.884 75.9249ZM-207.922 -148.646L-209.965 -146.227L304.955 288.668L306.998 286.249L-207.922 -148.646ZM26.9409 -265.152L10.9223 -264.173L52.031 408.572L68.0496 407.593L26.9409 -265.152ZM10.9224 -264.173L-5.09617 -263.194L36.0124 409.551L52.0309 408.572L10.9224 -264.173Z" fill="#070D1A" mask="url(#path-4-inside-2_8090_10)"/>
<mask id="path-6-inside-3_8090_10" fill="white">
<path d="M26.2861 60.6663C26.3163 62.1993 26.5938 63.2751 27.1311 64.0244L30.7159 63.7818L34.3008 63.5391L34.758 62.9394C34.9875 62.3544 35.0751 61.9825 35.0414 61.115C34.9232 60.5065 34.8286 60.1696 34.5653 59.5843C34.4044 59.2815 33.9823 58.4328 33.9823 58.4328C33.9823 58.4328 33.7911 58.0823 33.5989 57.6396C33.5989 57.6396 33.1686 56.4991 33.2163 55.7762C33.0816 56.1001 33.0417 56.3157 32.982 56.7115C32.9066 57.2909 32.8956 57.6135 32.8913 58.1877C32.5287 58.0376 32.0559 57.7536 32.0559 57.7536C30.9724 56.9262 31.7086 55.7007 31.7086 55.0549C31.7086 54.409 31.6443 54.0651 31.4894 53.6248C31.3345 53.1844 31.1124 52.8607 30.6694 52.3415C30.9373 52.8489 30.9698 53.1617 30.8319 53.7632C30.6355 54.3277 30.4669 54.6658 30.0384 55.3149C29.2764 56.3184 28.8824 56.6648 28.3715 57.6396C28.3715 57.6396 27.6469 59.2674 27.5936 60.8131C27.2178 59.9567 27.1865 59.3407 27.3517 58.0745C26.7164 58.7441 26.4692 59.29 26.2861 60.6663Z"/>
</mask>
<path d="M26.2861 60.6663C26.3163 62.1993 26.5938 63.2751 27.1311 64.0244L30.7159 63.7818L34.3008 63.5391L34.758 62.9394C34.9875 62.3544 35.0751 61.9825 35.0414 61.115C34.9232 60.5065 34.8286 60.1696 34.5653 59.5843C34.4044 59.2815 33.9823 58.4328 33.9823 58.4328C33.9823 58.4328 33.7911 58.0823 33.5989 57.6396C33.5989 57.6396 33.1686 56.4991 33.2163 55.7762C33.0816 56.1001 33.0417 56.3157 32.982 56.7115C32.9066 57.2909 32.8956 57.6135 32.8913 58.1877C32.5287 58.0376 32.0559 57.7536 32.0559 57.7536C30.9724 56.9262 31.7086 55.7007 31.7086 55.0549C31.7086 54.409 31.6443 54.0651 31.4894 53.6248C31.3345 53.1844 31.1124 52.8607 30.6694 52.3415C30.9373 52.8489 30.9698 53.1617 30.8319 53.7632C30.6355 54.3277 30.4669 54.6658 30.0384 55.3149C29.2764 56.3184 28.8824 56.6648 28.3715 57.6396C28.3715 57.6396 27.6469 59.2674 27.5936 60.8131C27.2178 59.9567 27.1865 59.3407 27.3517 58.0745C26.7164 58.7441 26.4692 59.29 26.2861 60.6663Z" fill="#070D1A"/>
<path d="M-130.215 14.7599L-130.234 14.8354L196.667 96.7171L196.686 96.6416L-130.215 14.7599ZM27.1311 64.0244L-246.748 260.389L-137.379 412.932L49.8918 400.255L27.1311 64.0244ZM26.2861 60.6663L-307.773 16.2435L-311.153 41.6612L-310.649 67.2976L26.2861 60.6663ZM27.3517 58.0745L361.518 101.686L495.503 -924.951L-217.119 -173.881L27.3517 58.0745ZM27.5936 60.8131L-281.007 196.22L364.393 72.4443L27.5936 60.8131ZM28.3715 57.6396L-270.115 -98.8052L-275.122 -89.251L-279.509 -79.3961L28.3715 57.6396ZM30.0384 55.3149L298.424 259.125L305.153 250.262L311.284 240.976L30.0384 55.3149ZM30.8319 53.7632L349.111 164.521L355.187 147.061L359.317 129.041L30.8319 53.7632ZM30.6694 52.3415L287.046 -166.382L-267.346 209.681L30.6694 52.3415ZM31.4894 53.6248L-286.41 165.469L-286.41 165.469L31.4894 53.6248ZM32.0559 57.7536L-172.466 325.596L-157.551 336.986L-141.462 346.649L32.0559 57.7536ZM32.8913 58.1877L-95.9986 369.566L366.127 560.855L369.882 60.7178L32.8913 58.1877ZM32.982 56.7115L-300.251 6.46527L-300.76 9.83716L-301.2 13.2187L32.982 56.7115ZM33.9823 58.4328L335.721 -91.6424L332.882 -97.3521L329.828 -102.95L33.9823 58.4328ZM33.5989 57.6396L-281.712 176.586L-278.802 184.299L-275.519 191.86L33.5989 57.6396ZM33.2163 55.7762L369.487 77.931L-277.954 -73.6143L33.2163 55.7762ZM34.5653 59.5843L341.896 -78.68L337.362 -88.7577L332.178 -98.5168L34.5653 59.5843ZM35.0414 61.115L371.788 48.0403L370.785 22.2256L365.86 -3.13468L35.0414 61.115ZM34.758 62.9394L302.756 267.259L331.289 229.832L348.478 186.02L34.758 62.9394ZM34.3008 63.5391L57.0615 399.77L209.603 389.443L302.298 267.858L34.3008 63.5391ZM30.7159 63.7818L7.95515 -272.449L30.7159 63.7818ZM301.01 -132.34C357.828 -53.0942 362.663 25.6949 363.221 54.0349L-310.649 67.2976C-310.03 98.7037 -304.64 179.644 -246.748 260.389L301.01 -132.34ZM360.345 105.089C359.085 114.566 354.482 148.675 337.533 189.183C317.462 237.152 290.408 270.441 271.822 290.03L-217.119 -173.881C-236.34 -153.623 -263.836 -119.726 -284.235 -70.9721C-301.512 -29.6803 -306.33 5.39068 -307.773 16.2435L360.345 105.089ZM336.194 -74.5937C348.137 -47.373 359.621 -11.1856 363.158 32.247C366.086 68.1998 362.231 96.2206 361.518 101.686L-306.814 14.463C-307.693 21.1945 -311.614 50.1565 -308.619 86.9479C-305.014 131.219 -293.326 168.143 -281.007 196.22L336.194 -74.5937ZM28.3715 57.6396C-279.509 -79.3961 -279.531 -79.3471 -279.552 -79.2981C-279.56 -79.2818 -279.581 -79.2327 -279.596 -79.1999C-279.625 -79.1343 -279.654 -79.0685 -279.684 -79.0025C-279.742 -78.8706 -279.801 -78.7379 -279.86 -78.6045C-279.978 -78.3376 -280.097 -78.0676 -280.217 -77.7946C-280.456 -77.2486 -280.7 -76.6896 -280.947 -76.1181C-281.441 -74.976 -281.952 -73.7775 -282.477 -72.5253C-283.522 -70.0314 -284.645 -67.2669 -285.816 -64.2567C-288.102 -58.3798 -290.847 -50.8532 -293.618 -41.9972C-297.951 -28.1512 -307.691 5.32786 -309.206 49.1818L364.393 72.4443C362.932 114.753 353.58 146.645 349.623 159.291C347.04 167.546 344.48 174.569 342.331 180.093C341.229 182.926 340.162 185.552 339.157 187.95C338.652 189.155 338.157 190.317 337.674 191.435C337.432 191.994 337.192 192.543 336.955 193.083C336.837 193.353 336.719 193.621 336.602 193.886C336.543 194.019 336.485 194.151 336.426 194.282C336.397 194.348 336.368 194.414 336.339 194.479C336.324 194.512 336.303 194.561 336.295 194.577C336.273 194.626 336.252 194.675 28.3715 57.6396ZM-238.347 -148.495C-235.671 -152.018 -233.52 -154.691 -232.932 -155.421C-231.407 -157.314 -234.786 -153.156 -237.706 -149.371C-241.689 -144.208 -247.352 -136.574 -253.617 -126.959C-259.919 -117.287 -265.376 -107.846 -270.115 -98.8052L326.858 214.084C322.375 222.638 317.158 231.67 311.098 240.972C305.074 250.216 299.653 257.518 295.927 262.347C293.265 265.798 290.159 269.621 291.988 267.35C292.88 266.242 295.367 263.149 298.424 259.125L-238.347 -148.495ZM-287.447 -56.9944C-284.249 -66.187 -278.646 -81.0068 -269.799 -98.3851C-261.751 -114.194 -254.206 -125.804 -251.207 -130.346L311.284 240.976C324.055 221.63 338.063 196.271 349.111 164.521L-287.447 -56.9944ZM-267.346 209.681C-277.924 189.646 -297.56 147.859 -303.989 90.6521C-310.108 36.2044 -301.164 -6.19334 -297.653 -21.5151L359.317 129.041C362.966 113.118 371.962 70.2633 365.795 15.382C359.317 -42.2581 339.53 -84.4556 328.685 -104.998L-267.346 209.681ZM368.709 55.0549C368.709 21.3625 363.759 -17.3748 349.389 -58.2194L-286.41 165.469C-291.074 152.211 -297.152 132.281 -301.123 107.426C-304.823 84.2656 -305.291 65.4977 -305.291 55.0549H368.709ZM349.389 -58.2191C328.588 -117.342 296.458 -155.35 287.046 -166.382L-225.707 271.065C-228.671 267.591 -239.702 254.665 -251.572 236.36C-265.56 214.788 -277.413 191.041 -286.41 165.469L349.389 -58.2191ZM236.578 -210.089C286.313 -172.112 327.431 -118.518 350.08 -52.9463C371.085 7.86927 369.734 60.2991 366.833 89.5685C364.203 116.113 358.265 138.648 359.435 133.735C359.441 133.709 359.911 131.749 360.451 129.347C361.011 126.857 361.976 122.439 363.006 116.896C364.721 107.667 368.709 84.6874 368.709 55.0549H-305.291C-305.291 25.5838 -301.327 2.7842 -299.648 -6.25166C-298.636 -11.6969 -297.692 -16.0148 -297.155 -18.4016C-296.871 -19.6667 -296.633 -20.6902 -296.484 -21.3285C-296.34 -21.943 -296.226 -22.4212 -296.214 -22.4692C-295.148 -26.9449 -301.203 -3.93073 -303.882 23.1039C-306.831 52.8638 -308.163 105.796 -286.991 167.094C-264.176 233.148 -222.743 287.206 -172.466 325.596L236.578 -210.089ZM161.781 -253.19C178.951 -246.083 191.627 -239.082 194.491 -237.51C197.155 -236.047 199.401 -234.766 201.099 -233.782C201.978 -233.273 202.789 -232.797 203.524 -232.363C203.893 -232.145 204.248 -231.934 204.589 -231.731C204.759 -231.63 204.926 -231.53 205.091 -231.431C205.173 -231.382 205.254 -231.334 205.335 -231.285C205.375 -231.261 205.415 -231.237 205.455 -231.213C205.475 -231.201 205.495 -231.189 205.515 -231.177C205.525 -231.171 205.54 -231.162 205.545 -231.159C205.559 -231.15 205.574 -231.141 32.0559 57.7536C-141.462 346.649 -141.448 346.658 -141.433 346.667C-141.428 346.67 -141.413 346.679 -141.403 346.685C-141.383 346.696 -141.363 346.708 -141.343 346.72C-141.303 346.745 -141.263 346.769 -141.222 346.793C-141.141 346.842 -141.059 346.891 -140.976 346.94C-140.81 347.04 -140.64 347.141 -140.466 347.245C-140.118 347.452 -139.753 347.669 -139.37 347.895C-138.608 348.346 -137.757 348.844 -136.828 349.383C-135.03 350.425 -132.644 351.786 -129.815 353.339C-126.624 355.09 -113.531 362.309 -95.9986 369.566L161.781 -253.19ZM-301.2 13.2187C-303.672 32.2163 -304.037 47.3232 -304.099 55.6576L369.882 60.7178C369.877 61.4139 369.85 68.0341 369.373 76.4662C368.834 86.0019 367.958 94.0976 367.164 100.204L-301.2 13.2187ZM33.9823 58.4328C329.828 -102.95 329.836 -102.935 329.845 -102.919C329.848 -102.914 329.856 -102.898 329.862 -102.888C329.873 -102.867 329.885 -102.846 329.896 -102.825C329.919 -102.783 329.942 -102.741 329.965 -102.699C330.011 -102.614 330.057 -102.529 330.103 -102.444C330.196 -102.273 330.29 -102.101 330.384 -101.926C330.573 -101.578 330.765 -101.22 330.961 -100.854C331.353 -100.124 331.762 -99.354 332.188 -98.5458C333.03 -96.9442 333.975 -95.1169 334.992 -93.0921C336.895 -89.3053 339.657 -83.6282 342.717 -76.5812L-275.519 191.86C-272.267 199.35 -269.313 205.424 -267.267 209.496C-266.178 211.664 -265.173 213.607 -264.289 215.288C-263.843 216.136 -263.417 216.937 -263.014 217.688C-262.812 218.064 -262.615 218.43 -262.424 218.784C-262.328 218.961 -262.233 219.136 -262.14 219.308C-262.093 219.394 -262.047 219.479 -262.001 219.564C-261.977 219.606 -261.954 219.648 -261.932 219.69C-261.92 219.711 -261.909 219.732 -261.897 219.753C-261.892 219.764 -261.883 219.779 -261.88 219.785C-261.872 219.8 -261.863 219.816 33.9823 58.4328ZM-277.954 -73.6143C-294.221 -34.4943 -299.051 -1.49595 -300.251 6.46527L366.215 106.958C366.141 107.451 365.655 110.699 364.926 114.843C364.139 119.316 362.851 126.113 360.895 134.324C356.432 153.054 350.672 170.051 344.387 185.167L-277.954 -73.6143ZM33.5989 57.6396C348.909 -61.3068 348.924 -61.2689 348.938 -61.231C348.943 -61.2184 348.957 -61.1804 348.967 -61.155C348.986 -61.1043 349.005 -61.0534 349.024 -61.0024C349.062 -60.9004 349.101 -60.7979 349.14 -60.6948C349.217 -60.4887 349.295 -60.2803 349.373 -60.0697C349.53 -59.6487 349.69 -59.218 349.852 -58.7779C350.175 -57.899 350.511 -56.9756 350.857 -56.0101C351.543 -54.0932 352.295 -51.9369 353.088 -49.5699C354.597 -45.0628 356.611 -38.7294 358.689 -31.0502C360.641 -23.8378 363.572 -12.0712 365.957 2.71288C367.998 15.3717 371.796 42.8818 369.487 77.931L-303.055 33.6215C-307.006 93.6008 -293.191 140.274 -291.91 145.008C-289.73 153.063 -287.612 159.727 -286.023 164.47C-285.191 166.955 -284.405 169.206 -283.696 171.188C-283.338 172.187 -282.993 173.135 -282.664 174.031C-282.499 174.48 -282.337 174.917 -282.178 175.342C-282.099 175.555 -282.02 175.765 -281.942 175.972C-281.904 176.076 -281.865 176.179 -281.826 176.281C-281.807 176.332 -281.788 176.383 -281.769 176.434C-281.759 176.459 -281.745 176.498 -281.74 176.51C-281.726 176.548 -281.712 176.586 33.5989 57.6396ZM33.9823 58.4328C-267.757 208.508 -267.756 208.509 -267.755 208.511C-267.755 208.511 -267.754 208.513 -267.754 208.514C-267.753 208.516 -267.752 208.518 -267.751 208.52C-267.749 208.524 -267.747 208.528 -267.745 208.532C-267.741 208.54 -267.737 208.548 -267.732 208.557C-267.723 208.575 -267.714 208.594 -267.704 208.614C-267.684 208.654 -267.662 208.699 -267.637 208.748C-267.588 208.847 -267.528 208.967 -267.459 209.105C-267.329 209.366 -267.136 209.752 -266.907 210.206C-266.701 210.618 -266.341 211.333 -265.906 212.187C-265.714 212.564 -264.544 214.867 -263.047 217.685L332.178 -98.5168C333.594 -95.8502 334.651 -93.7666 334.718 -93.6342C335.029 -93.024 335.253 -92.5779 335.334 -92.4166C335.437 -92.2119 335.515 -92.057 335.561 -91.9643C335.587 -91.9112 335.613 -91.8597 335.638 -91.8088C335.651 -91.783 335.665 -91.7565 335.678 -91.7291C335.685 -91.7153 335.692 -91.7012 335.699 -91.6868C335.703 -91.6796 335.706 -91.6723 335.71 -91.6649C335.712 -91.6612 335.714 -91.6575 335.716 -91.6537C335.717 -91.6519 335.718 -91.65 335.719 -91.6481C335.719 -91.6472 335.72 -91.6457 335.72 -91.6453C335.721 -91.6438 335.721 -91.6424 33.9823 58.4328ZM-272.765 197.849C-276.562 189.408 -282.201 175.94 -287.431 158.825C-292.391 142.591 -294.952 129.616 -295.777 125.365L365.86 -3.13468C361.758 -24.2538 354.713 -50.1901 341.896 -78.68L-272.765 197.849ZM-301.705 74.1898C-302.166 62.3151 -302.573 37.252 -297.294 6.00188C-291.755 -26.7918 -282.473 -51.1908 -278.962 -60.1416L348.478 186.02C352.219 176.485 361.659 151.607 367.291 118.264C372.662 86.4652 372.282 60.7824 371.788 48.0403L-301.705 74.1898ZM-233.24 -141.38L-233.697 -140.78L302.298 267.858L302.756 267.259L-233.24 -141.38ZM11.54 -272.691L7.95516 -272.449L53.4767 400.012L57.0615 399.77L11.54 -272.691ZM7.95515 -272.449L4.3703 -272.206L49.8918 400.255L53.4767 400.012L7.95515 -272.449Z" fill="#070D1A" mask="url(#path-6-inside-3_8090_10)"/>
<path d="M49.8251 65.2187C50.142 67.7754 48.5882 70.4216 45.5921 72.6263C42.6109 74.8202 38.2908 76.4998 33.3378 77.1136C28.3847 77.7274 23.7854 77.1531 20.3587 75.7533C16.9152 74.3466 14.7625 72.1597 14.4456 69.603C14.1288 67.0463 15.6826 64.4001 18.6786 62.1954C21.6599 60.0016 25.9799 58.3219 30.933 57.7081C35.8861 57.0943 40.4854 57.6687 43.912 59.0684C47.3556 60.4751 49.5083 62.662 49.8251 65.2187Z" fill="#070D1A" stroke="#070D1A"/>
</svg>
